<?xml version="1.0" encoding="UTF-8"?>
<svg xmlns="http://www.w3.org/2000/svg" xmlns:xlink="http://www.w3.org/1999/xlink" width="375pt" height="374.999991pt" viewBox="0 0 375 374.999991" version="1.2">
<defs>
<clipPath id="clip1">
  <path d="M 19 37.5 L 356 37.5 L 356 332.25 L 19 332.25 Z M 19 37.5 "/>
</clipPath>
</defs>
<g id="surface1">
<g clip-path="url(#clip1)" clip-rule="nonzero">
<path style=" stroke:none;fill-rule:nonzero;fill:rgb(21.958923%,71.369934%,100%);fill-opacity:1;" d="M 244.582031 242.832031 C 263.480469 242.832031 280.855469 242.832031 298.175781 242.664062 C 299.308594 242.394531 300.335938 241.90625 301.261719 241.199219 C 302.1875 240.492188 302.925781 239.628906 303.480469 238.605469 C 313.410156 221.691406 323.226562 204.777344 332.761719 187.863281 C 333.21875 186.726562 333.445312 185.550781 333.445312 184.324219 C 333.445312 183.101562 333.21875 181.921875 332.761719 180.789062 C 331.09375 177.195312 329.15625 173.757812 326.949219 170.46875 C 325.566406 172.414062 324.382812 173.796875 323.480469 175.347656 C 314.648438 190.851562 305.625 206.355469 297.160156 221.972656 C 294.339844 227.160156 291.097656 229.472656 285.199219 228.765625 C 280.582031 228.507812 275.96875 228.507812 271.351562 228.765625 C 289.742188 196.09375 307.738281 164.351562 326.386719 131.652344 C 336.539062 149.160156 346.132812 165.480469 355.410156 182.054688 C 355.699219 183.179688 355.746094 184.3125 355.554688 185.457031 C 355.363281 186.597656 354.949219 187.65625 354.3125 188.625 C 341.355469 211.34375 328.257812 233.992188 315.015625 256.5625 C 314.34375 257.75 313.457031 258.746094 312.355469 259.550781 C 311.253906 260.355469 310.035156 260.902344 308.699219 261.183594 C 276.824219 261.496094 244.945312 261.410156 211.660156 261.410156 C 216.9375 252.136719 221.617188 243.734375 226.441406 235.417969 C 247.738281 198.574219 268.839844 161.535156 290.589844 125.085938 C 294.679688 118.207031 295.410156 113.019531 290.335938 106.988281 C 288.859375 105.003906 287.515625 102.9375 286.300781 100.785156 L 183.3125 279.167969 L 301.984375 279.167969 C 295.695312 290.050781 290.195312 299.917969 284.410156 309.699219 C 280.207031 316.859375 277.386719 326.613281 271.097656 330.21875 C 264.804688 333.828125 254.933594 331.460938 246.640625 331.488281 L 90.957031 331.488281 C 144.1875 239.476562 196.738281 148.59375 249.96875 56.5 L 125.03125 56.5 C 111.605469 56.5 111.605469 56.5 106.132812 69.945312 L 224.015625 69.945312 L 87.628906 306.203125 C 77.5 288.640625 67.882812 272.375 58.65625 255.601562 C 58.25 254.308594 58.125 252.992188 58.28125 251.644531 C 58.4375 250.296875 58.863281 249.042969 59.558594 247.878906 C 81.207031 210.105469 102.953125 172.40625 124.804688 134.78125 C 126.328125 132.132812 127.628906 129.398438 129.6875 125.816406 C 111.152344 125.816406 93.804688 125.816406 76.457031 125.957031 C 75.296875 126.113281 74.222656 126.507812 73.234375 127.136719 C 72.25 127.769531 71.441406 128.578125 70.816406 129.566406 C 60.773438 146.59375 50.882812 163.734375 41.140625 180.984375 C 40.710938 182.019531 40.5 183.09375 40.5 184.210938 C 40.5 185.332031 40.710938 186.40625 41.140625 187.441406 C 43.054688 191.335938 45.207031 195.09375 47.597656 198.714844 C 50.816406 193.078125 53.609375 188.566406 56.289062 183.832031 C 63.453125 171.316406 70.84375 158.914062 77.558594 146.140625 C 77.753906 145.644531 77.992188 145.164062 78.273438 144.703125 C 78.550781 144.246094 78.867188 143.8125 79.222656 143.410156 C 79.578125 143.003906 79.964844 142.632812 80.382812 142.296875 C 80.800781 141.957031 81.242188 141.660156 81.710938 141.398438 C 82.183594 141.136719 82.671875 140.917969 83.179688 140.738281 C 83.6875 140.5625 84.207031 140.429688 84.734375 140.339844 C 85.265625 140.253906 85.800781 140.210938 86.335938 140.214844 C 86.875 140.21875 87.410156 140.269531 87.9375 140.363281 C 92.480469 140.730469 97.078125 140.363281 102.804688 140.363281 C 84.128906 172.808594 66.273438 204.4375 47.710938 237.082031 C 39.25 222.3125 31.660156 208.132812 22.945312 194.796875 C 17.980469 187.242188 18.066406 181.773438 22.945312 174.050781 C 35.441406 153.921875 46.921875 133.148438 58.742188 112.511719 C 59.148438 111.59375 59.683594 110.761719 60.351562 110.015625 C 61.019531 109.265625 61.785156 108.640625 62.652344 108.132812 C 63.519531 107.625 64.441406 107.265625 65.421875 107.050781 C 66.402344 106.835938 67.390625 106.777344 68.390625 106.875 C 99.25 107.15625 130.136719 107.015625 162.519531 107.015625 C 160.632812 110.59375 159.304688 113.300781 157.808594 115.894531 C 133.832031 157.390625 110.308594 199.167969 85.566406 240.183594 C 79.109375 250.867188 79.164062 258.5625 88.390625 267.414062 C 122.210938 208.355469 156.230469 149.414062 190.871094 89.398438 L 72.847656 89.398438 C 74.03125 86.804688 74.679688 85.082031 75.667969 83.503906 C 83.679688 69.410156 91.632812 55.457031 99.984375 41.644531 C 100.722656 40.542969 101.652344 39.644531 102.78125 38.945312 C 103.90625 38.25 105.128906 37.8125 106.441406 37.640625 C 164.328125 37.433594 222.210938 37.386719 280.09375 37.5 C 280.933594 37.617188 281.761719 37.785156 282.578125 38.007812 C 229.796875 129.371094 177.21875 220.367188 123.902344 312.488281 L 249.402344 312.488281 C 262.578125 312.488281 263.027344 312.152344 268.019531 298.394531 L 150.308594 298.394531 L 286.101562 63.066406 C 287.359375 64.644531 288.535156 66.277344 289.628906 67.972656 C 297.867188 82.066406 305.90625 96.417969 314.367188 110.453125 C 314.957031 111.257812 315.40625 112.132812 315.714844 113.082031 C 316.023438 114.027344 316.179688 115 316.179688 115.992188 C 316.179688 116.988281 316.023438 117.960938 315.714844 118.90625 C 315.40625 119.855469 314.957031 120.730469 314.367188 121.53125 C 292.195312 159.476562 270.15625 197.558594 248.246094 235.785156 C 247.175781 237.644531 246.273438 239.5625 244.582031 242.832031 Z M 244.582031 242.832031 "/>
</g>
</g>
</svg>
